<svg width="29" height="27" viewBox="0 0 29 27" fill="none" xmlns="http://www.w3.org/2000/svg">
<path d="M7 17C7 17 6 15.5 6 13C6 10.5 7 9 7 9M3 21C3 21 1 17.5 1 12.75C1 8 3 4.5 3 4.5M20.7175 19H25.5C26.6046 19 27.5 18.1046 27.5 17V9C27.5 7.89543 26.6046 7 25.5 7H20.7175C20.2537 7 19.8042 6.83875 19.4461 6.54386L14.7714 2.69411C13.4667 1.61961 11.5 2.54773 11.5 4.23797V21.762C11.5 23.4523 13.4667 24.3804 14.7714 23.3059L19.4461 19.4561C19.8042 19.1612 20.2537 19 20.7175 19Z" stroke="white" stroke-width="2"/>
</svg>
